<svg width="181.643509" height="57.229004" viewBox="0 0 181.644 57.229" fill="none" xmlns="http://www.w3.org/2000/svg" xmlns:xlink="http://www.w3.org/1999/xlink">
	<desc>
			Created with Pixso.
	</desc>
	<defs/>
	<path id="矢量 1" d="M89.46 44.43C88.95 44.43 88.64 43.83 88.52 42.64C88.48 42.1 88.51 41.45 88.62 40.67C88.75 39.7 89.01 38.54 89.39 37.2C90.76 32.48 92.45 26.77 94.44 20.08C96.45 13.38 97.97 8.34 99.02 4.94C99.4 3.73 99.94 2.6 100.64 1.56Q101.32 0.56 102.19 0.2L102.19 0.2Q102.68 0 103.23 0C103.57 0 103.74 0.17 103.75 0.53Q103.75 0.68 103.72 0.9C103.66 1.28 103.54 1.83 103.33 2.55C103.32 2.6 103.27 2.75 103.18 2.98Q103.05 3.32 102.81 4.19Q96.99 20.7 92.56 36.39Q92.37 37.03 92.28 37.7Q92.08 39.12 92.27 40.66C92.47 42.12 92.56 42.91 92.54 43.03C92.54 43.03 92.54 43.03 92.54 43.04Q92.51 43.11 92.48 43.19Q92.24 43.71 91.42 44.05C90.8 44.3 90.14 44.43 89.46 44.43ZM45.38 44.35Q44.3 44.35 42.45 38.75C41.23 35 40.45 31.76 40.11 29.05Q37.49 32.19 34.79 35.83C33 38.25 32.01 39.8 31.82 40.46C31.82 40.48 31.81 40.51 31.81 40.53C31.79 40.65 31.81 40.8 31.86 40.98C31.94 41.19 32.05 41.33 32.19 41.41C32.23 41.45 32.33 41.52 32.51 41.63C32.68 41.72 32.75 41.84 32.73 41.98C32.73 42 32.73 42.02 32.72 42.04C32.66 42.24 32.42 42.55 31.98 42.94C31.56 43.34 31.28 43.6 31.17 43.73C30.98 43.9 30.78 44.09 30.55 44.31C30.32 44.51 30.06 44.78 29.74 45.12C29.51 45.36 28.95 45.96 28.08 46.9C27.22 47.84 26.67 48.31 26.42 48.31C25.9 48.31 25.54 48.12 25.34 47.74C25.21 47.47 25.17 47.13 25.23 46.73C25.25 46.57 25.28 46.41 25.33 46.24Q25.93 44.11 30.46 37.58Q35 31.05 39.3 25.54C38.13 18.38 37.3 13.71 36.81 11.53L36.15 8.84C35.9 7.92 35.68 7.08 35.51 6.34C35.36 5.66 35.31 5.2 35.34 4.96C35.35 4.93 35.35 4.9 35.36 4.88C35.52 4.3 35.81 4.01 36.23 4.01C36.61 4.01 37.12 4.46 37.74 5.36C38.36 6.26 38.85 7.42 39.22 8.84C39.64 10.39 40.15 12.6 40.74 15.47C41.34 18.33 41.75 20.64 41.99 22.4C48.8 14.15 52.59 9.63 53.37 8.84C54.26 7.96 54.96 7.38 55.47 7.09C55.98 6.79 56.79 6.64 57.89 6.64C58.4 6.64 58.82 6.71 59.15 6.83C59.46 6.94 59.6 7.08 59.58 7.24C59.58 7.25 59.58 7.26 59.57 7.27C59.51 7.48 59 7.92 58.04 8.59C56.82 9.47 55.96 10.16 55.47 10.66Q54.43 11.66 51.08 15.55Q47.75 19.44 44.92 22.9L42.8 25.4C43.44 29.01 44.22 32.21 45.11 35.02C46.01 37.82 46.75 39.22 47.35 39.22C47.61 39.22 47.86 39.06 48.12 38.75C48.38 38.43 48.77 37.85 49.31 37.01C49.45 36.81 49.67 36.45 49.96 35.93C50.27 35.39 50.53 35.13 50.74 35.13C51.04 35.13 51.22 35.19 51.3 35.3C51.35 35.36 51.36 35.49 51.34 35.68C51.32 35.79 51.29 35.92 51.25 36.08C51.12 36.54 50.65 37.47 49.85 38.87C49.05 40.27 48.22 41.53 47.36 42.67Q46.08 44.35 45.38 44.35ZM26.88 29.67Q26.56 30.81 23.77 34.64Q21.01 38.45 16.65 41.72C13.75 43.89 10.64 44.98 7.32 44.98Q4.24 44.98 2.32 43.57Q1.69 43.1 1.18 42.48Q1.11 42.4 1.05 42.31L1.05 42.31Q-0.36 40.41 0.11 37.07Q0.26 35.99 0.61 34.76Q2 29.86 5.65 25.06Q9.32 20.27 13.88 17.22Q18.46 14.17 22.43 14.17Q24.79 14.17 26.12 15.21Q26.69 15.64 26.92 16.24Q27.15 16.84 27.04 17.6Q27.01 17.88 26.92 18.18Q26.3 20.39 23.18 22.46C21.1 23.84 18.57 25.05 15.59 26.1C12.61 27.15 9.62 27.9 6.64 28.36Q5.06 31.24 4.28 34.01Q4.01 34.96 3.89 35.79Q3.56 38.16 4.43 39.65Q4.67 40.05 5 40.37Q6.29 41.66 8.9 41.66Q11.25 41.66 13.4 40.87Q15.76 40.01 17.87 38.21Q18.13 37.99 18.39 37.76Q22.13 34.48 25.2 30.43Q25.39 30.18 25.91 29.46C26.26 28.98 26.52 28.74 26.69 28.74C26.92 28.74 27.01 28.93 26.96 29.3C26.94 29.41 26.92 29.53 26.88 29.67ZM181.44 29.67Q181.12 30.81 178.33 34.64C176.49 37.18 174.11 39.54 171.21 41.72C168.31 43.89 165.2 44.98 161.88 44.98Q158.8 44.98 156.88 43.57Q156.25 43.1 155.74 42.48C154.7 41.2 154.35 39.4 154.67 37.07C154.77 36.35 154.94 35.58 155.17 34.76C156.1 31.49 157.77 28.26 160.21 25.06C162.65 21.87 165.4 19.25 168.44 17.22C171.49 15.18 174.34 14.17 176.99 14.17C178.56 14.17 179.79 14.52 180.68 15.21Q181.25 15.64 181.48 16.24Q181.71 16.84 181.61 17.6C181.58 17.79 181.54 17.98 181.48 18.18Q180.86 20.39 177.74 22.46C175.66 23.84 173.13 25.05 170.15 26.1C167.17 27.15 164.18 27.9 161.2 28.36C160.15 30.28 159.36 32.16 158.84 34.01C158.66 34.64 158.53 35.23 158.45 35.79C158.23 37.37 158.41 38.66 158.99 39.65C159.79 40.99 161.28 41.66 163.46 41.66C166.74 41.66 169.73 40.51 172.43 38.21C175.13 35.91 177.58 33.32 179.76 30.43C179.89 30.26 180.12 29.94 180.47 29.46Q181 28.74 181.25 28.74C181.48 28.74 181.57 28.93 181.52 29.3Q181.5 29.46 181.44 29.67ZM152.72 20.33C152.42 20.33 152.16 20.21 151.95 19.96C151.75 19.7 151.55 19.34 151.34 18.87C151.15 18.45 150.86 18.1 150.45 17.81C150.04 17.52 149.58 17.37 149.07 17.37Q147.21 17.37 142.71 22.18C139.73 25.38 136.54 29.4 133.16 34.26C132.93 35.22 132.66 36.43 132.35 37.9C132.05 39.36 131.82 40.45 131.66 41.17L131.14 43.66C130.98 44.26 130.7 44.77 130.32 45.21C129.94 45.65 129.41 45.87 128.73 45.87C128.05 45.87 127.84 45.04 128.07 43.38C128.08 43.27 128.1 43.15 128.12 43.02Q128.62 40.15 130.1 34.7C130.32 33.78 130.66 32.46 131.12 30.75Q131.82 28.17 132.69 24.59C133.58 20.99 134.25 18.42 134.68 16.86C134.96 15.9 135.69 15.42 136.89 15.42C137.61 15.42 137.95 15.73 137.92 16.34C137.92 16.48 137.91 16.64 137.88 16.84C137.79 17.5 137.55 18.49 137.18 19.82L134.36 29.8C136.55 26.58 138.72 23.8 140.87 21.46C143.03 19.11 145 17.32 146.78 16.08C148.56 14.85 150 14.23 151.12 14.23C152.05 14.23 152.89 14.44 153.63 14.86C154.36 15.28 154.89 15.81 155.22 16.47C155.49 17 155.59 17.52 155.52 18.02C155.51 18.12 155.49 18.22 155.46 18.32C155.36 18.69 154.96 19.12 154.28 19.61C153.62 20.09 153.1 20.33 152.72 20.33ZM61.04 39.71C60.14 42.56 59.44 44.88 58.93 46.68C58.26 49.06 57.75 51.24 57.41 53.21C57.28 53.97 57.18 54.49 57.1 54.77C56.91 55.45 56.59 56.02 56.15 56.5Q55.78 56.93 55.33 57.1Q55.02 57.22 54.67 57.22Q53.92 57.22 53.71 56.87Q53.6 56.69 53.63 56.41C53.78 55.7 54.04 54.59 54.4 53.1C54.75 51.62 55.14 50.13 55.57 48.63L58.11 39.85C57.9 39.85 57.5 39.87 56.9 39.91C56.32 39.95 55.75 39.97 55.2 39.97C54.34 39.97 53.98 39.49 54.12 38.51Q54.16 38.24 54.25 37.9C54.54 36.89 54.94 36.39 55.45 36.39C55.61 36.39 56.09 36.51 56.87 36.77C57.65 37.01 58.34 37.14 58.94 37.14L63.89 19.38C63.56 19.34 62.88 19.27 61.84 19.16C60.81 19.06 60.08 18.86 59.67 18.57C59.32 18.31 59.18 17.97 59.24 17.54C59.25 17.47 59.27 17.39 59.29 17.31C59.59 16.23 59.96 15.69 60.39 15.69C60.86 15.69 61.39 15.85 61.98 16.18Q62.09 16.24 62.65 16.53C63.02 16.71 63.59 16.84 64.33 16.93Q64.99 15.93 65.44 15.56Q65.91 15.18 66.94 15.18C67.75 15.18 68.13 15.33 68.09 15.63C68.08 15.65 68.08 15.67 68.07 15.69Q68.02 15.87 67.69 16.34C67.47 16.65 67.33 16.95 67.24 17.25C69.78 17.63 72.56 18.39 75.58 19.55C78.61 20.69 81.1 22.14 83.05 23.9Q85.32 25.93 85.31 28.26Q85.31 28.6 85.26 28.94Q85.21 29.3 85.11 29.67C84.27 32.65 81.65 34.95 77.27 36.58C72.89 38.21 67.48 39.25 61.04 39.71ZM105.89 45.18C103.03 45.18 101.14 44.41 100.2 42.87Q99.95 42.45 99.78 42.01Q99.2 40.49 99.47 38.56Q99.57 37.85 99.79 37.08C100.35 35.07 101.43 32.59 103.02 29.61Q105.4 25.15 108.44 21.65C108.57 21.47 109.1 20.85 110.01 19.79C110.94 18.72 111.86 17.9 112.78 17.34C113.71 16.78 114.6 16.5 115.46 16.5C115.84 16.5 116.17 16.59 116.42 16.79C116.66 16.95 116.76 17.15 116.73 17.39Q116.72 17.44 116.71 17.49C116.68 17.59 116.51 17.79 116.18 18.11C115.86 18.41 115.62 18.65 115.45 18.81Q112.55 21.39 110.49 23.9Q107.79 27.1 105.9 30.24Q104.03 33.38 102.99 37.08Q102.85 37.59 102.78 38.04Q102.59 39.44 103.13 40.35Q104.14 42.04 107.73 42.04C109.66 42.04 111.59 41.5 113.53 40.42C115.49 39.32 117.17 37.99 118.59 36.43Q120.74 34.07 121.29 32.13C121.38 31.83 121.44 31.55 121.48 31.27C121.63 30.15 121.44 29.16 120.89 28.3Q119.89 26.66 117.83 24.85C116.96 24.05 116.33 23.4 115.95 22.9C115.62 22.44 115.47 22.05 115.52 21.74C115.52 21.71 115.53 21.68 115.54 21.65C115.68 21.15 116.16 20.74 116.98 20.42C117.79 20.1 118.69 19.94 119.67 19.94C120.22 19.94 120.58 19.98 120.72 20.04Q120.85 20.08 120.89 20.17Q120.92 20.24 120.9 20.33Q120.9 20.36 120.89 20.39C120.87 20.47 120.75 20.61 120.54 20.8C120.34 20.99 120.23 21.14 120.19 21.26Q120.19 21.27 120.19 21.27Q120.16 21.47 121.12 22.52Q123.1 24.59 124.21 26.73C124.8 27.84 124.99 29.09 124.79 30.5C124.74 30.9 124.65 31.32 124.53 31.74C124.07 33.38 122.91 35.26 121.07 37.4C119.24 39.53 116.97 41.37 114.27 42.9Q112.16 44.09 109.97 44.66Q107.97 45.18 105.89 45.18ZM20.92 16.74Q18.5 16.74 15.8 18.32Q14.03 19.36 12.5 20.67Q11.72 21.35 11 22.09Q8.88 24.28 7.96 25.97Q10.98 25.66 14.62 24.34Q18.26 23.02 20.9 21.46C22.68 20.41 23.66 19.55 23.85 18.87C23.87 18.79 23.89 18.71 23.9 18.63C23.98 18.08 23.75 17.64 23.23 17.31Q22.34 16.74 20.92 16.74ZM175.48 16.74C173.87 16.74 172.16 17.27 170.36 18.32C168.58 19.36 166.98 20.62 165.56 22.09C164.15 23.55 163.14 24.84 162.52 25.97C164.53 25.76 166.75 25.22 169.18 24.34C171.6 23.46 173.7 22.5 175.46 21.46C177.24 20.41 178.22 19.55 178.41 18.87C178.43 18.79 178.45 18.71 178.46 18.63C178.54 18.08 178.32 17.64 177.79 17.31Q176.9 16.74 175.48 16.74ZM66.44 19.64Q65.54 23.27 63.91 29.28C62.83 33.27 62.11 35.91 61.75 37.2Q65.58 37.2 70.19 36.23C73.28 35.59 75.97 34.71 78.27 33.6C80.57 32.48 81.91 31.26 82.29 29.92C82.35 29.71 82.39 29.5 82.42 29.3Q82.47 28.96 82.46 28.64Q82.42 26.75 80.56 25.15Q78.1 23.02 74.16 21.65Q70.23 20.27 66.44 19.64Z" fill="#FFFFFF" fill-opacity="1.000000" fill-rule="evenodd"/>
</svg>
